# xmcd
#
# Track frame offsets:
#	150
#	20208
#	42276
#	64912
#	81032
#	107534
#	127986
#	148352
#	166913
#	189320
#	211210
#	233942
#	251498
#	273854
#	291238
#	311114
#	329389
#
# Disc length: 4648 seconds
#
# Revision: 0
# Processed by: cddbd v1.5.2PL0 Copyright (c) Steve Scherf et al.
# Submitted via: EasyCDDAExtractor 11.1.0.1
#
DISCID=fb122611
DTITLE=Various Artist - Best Slows Ever Vol 7
DYEAR=1900
DGENRE=
TTITLE0=Richard Marx - Right Here Waiting
TTITLE1=Bon Jovi - Never Say Goodbye
TTITLE2=Aerosmith - I Don't Want To Miss A thing
TTITLE3=Carly Simon - It's Hard To Be Tender
TTITLE4=Bonny Tyler and Todd Rundgren - Loving You's A Dirty Job But Somebody's 
TTITLE4=Gotta Do It
TTITLE5=Patty Smyth and Don Henley - Sometimes Love Just Ain't Enough
TTITLE6=Lionel Richie and Diana Ross - Endless Love
TTITLE7=Peabo Bryson and Regina Belle - A Whole New World
TTITLE8=Danger Danger - Don't Walk Away
TTITLE9=Phil Collins - One more Night
TTITLE10=George Michael - Careless Whispers
TTITLE11=Billy Ocean - Suddenly
TTITLE12=Elkie Brooks - No More The Fools
TTITLE13=Toto - I'll Be Over You
TTITLE14=Mort Schuman - Sorrow
TTITLE15=Gerard Jolling - Corazon
TTITLE16=Tina Turner - Silent Wings
EXTD=
EXTT0=
EXTT1=
EXTT2=
EXTT3=
EXTT4=
EXTT5=
EXTT6=
EXTT7=
EXTT8=
EXTT9=
EXTT10=
EXTT11=
EXTT12=
EXTT13=
EXTT14=
EXTT15=
EXTT16=
PLAYORDER=
